<svg xmlns="http://www.w3.org/2000/svg" xmlns:xlink="http://www.w3.org/1999/xlink" style="margin:auto;background:rgba(NaN, NaN, NaN, 0);display:block;z-index:1;position:relative" width="1920" height="1080" preserveAspectRatio="xMidYMid" viewBox="0 0 1920 1080">
<g transform="translate(960,540) scale(-1,1) translate(-960,-540)"><g transform="translate(1632,540) scale(100)" opacity="0.44000000000000006">
  <path d="M6.72 0 C6.72 2.4863999999999997 7.062890713431428 1.2067144360303712 5.819690713431428 3.3599999999999994 S5.513285563969628 4.576490713431427 3.3600000000000008 5.819690713431427 S2.4864 6.72 4.1148132451351065e-16 6.72 S-1.2067144360303703 7.062890713431427 -3.3599999999999985 5.819690713431428 S-4.576490713431426 5.51328556396963 -5.819690713431426 3.360000000000002 S-6.72 2.4864000000000006 -6.72 8.229626490270213e-16 S-7.062890713431428 -1.2067144360303699 -5.819690713431429 -3.359999999999998 S-5.51328556396963 -4.576490713431425 -3.360000000000003 -5.8196907134314255 S-2.486400000000001 -6.719999999999999 -1.2344439735405319e-15 -6.72 S1.2067144360303663 -7.062890713431428 3.3599999999999954 -5.81969071343143 S4.576490713431425 -5.51328556396963 5.8196907134314255 -3.360000000000003 S6.719999999999999 -2.4864000000000015 6.72 -1.6459252980540426e-15" fill="#f0c039" stroke-width="0">
    <animateTransform attributeName="transform" type="rotate" dur="10s" repeatCount="indefinite" values="0;60"></animateTransform>
  </path>
</g><g transform="translate(1766.4,540) scale(100)" opacity="0.44000000000000006">
  <path d="M8.064 0 C8.064 2.98368 8.475468856117715 1.448057323236445 6.983628856117714 4.031999999999999 S6.615942676763555 5.491788856117713 4.032000000000001 6.983628856117713 S2.9836800000000006 8.064 4.937775894162128e-16 8.064 S-1.4480573232364442 8.475468856117713 -4.031999999999998 6.983628856117714 S-5.4917888561177115 6.615942676763556 -6.983628856117712 4.032000000000003 S-8.064 2.983680000000001 -8.064 9.875551788324256e-16 S-8.475468856117715 -1.4480573232364429 -6.983628856117715 -4.031999999999997 S-6.615942676763557 -5.49178885611771 -4.032000000000004 -6.983628856117711 S-2.9836800000000014 -8.064 -1.4813327682486383e-15 -8.064 S1.4480573232364393 -8.475468856117715 4.031999999999995 -6.983628856117717 S5.49178885611771 -6.615942676763557 6.983628856117711 -4.032000000000004 S8.064 -2.983680000000002 8.064 -1.9751103576648512e-15" fill="#2acd6c" stroke-width="0">
    <animateTransform attributeName="transform" type="rotate" dur="5s" repeatCount="indefinite" values="0;60"></animateTransform>
  </path>
</g><g transform="translate(2088.96,540) scale(100)" opacity="0.44000000000000006">
  <path d="M11.289599999999998 0 C11.289599999999998 4.1771519999999995 11.865656398564797 2.027280252531023 9.777080398564797 5.644799999999998 S9.262319747468975 7.688504398564797 5.6448 9.777080398564797 S4.177152 11.289599999999998 6.912886251826978e-16 11.289599999999998 S-2.027280252531021 11.865656398564795 -5.6447999999999965 9.777080398564797 S-7.688504398564794 9.262319747468977 -9.777080398564795 5.644800000000003 S-11.289599999999998 4.177152000000001 -11.289599999999998 1.3825772503653956e-15 S-11.865656398564797 -2.02728025253102 -9.777080398564799 -5.644799999999996 S-9.262319747468979 -7.688504398564792 -5.6448000000000045 -9.777080398564793 S-4.177152000000001 -11.289599999999998 -2.0738658755480933e-15 -11.289599999999998 S2.0272802525310154 -11.865656398564798 5.644799999999992 -9.777080398564802 S7.688504398564792 -9.262319747468979 9.777080398564793 -5.6448000000000045 S11.289599999999997 -4.177152000000002 11.289599999999998 -2.7651545007307912e-15" fill="#00bbe0" stroke-width="0">
    <animateTransform attributeName="transform" type="rotate" dur="3.3333333333333335s" repeatCount="indefinite" values="0;60"></animateTransform>
  </path>
</g><g transform="translate(2766.336,540) scale(100)" opacity="0.44000000000000006">
  <path d="M18.06336 0 C18.06336 6.6834432 18.98505023770368 3.2436484040496367 15.643328637703679 9.031679999999998 S14.819711595950363 12.301607037703675 9.031680000000001 15.643328637703677 S6.683443200000001 18.06336 1.1060618002923167e-15 18.06336 S-3.243648404049635 18.98505023770368 -9.031679999999996 15.643328637703679 S-12.301607037703672 14.819711595950364 -15.643328637703675 9.031680000000005 S-18.06336 6.683443200000002 -18.06336 2.2121236005846334e-15 S-18.98505023770368 -3.2436484040496323 -15.64332863770368 -9.031679999999994 S-14.819711595950368 -12.301607037703668 -9.031680000000009 -15.643328637703672 S-6.683443200000004 -18.06336 -3.31818540087695e-15 -18.06336 S3.2436484040496234 -18.98505023770368 9.031679999999987 -15.643328637703684 S12.301607037703668 -14.819711595950368 15.643328637703672 -9.031680000000009 S18.06336 -6.683443200000005 18.06336 -4.424247201169267e-15" fill="#4f8cff" stroke-width="0">
    <animateTransform attributeName="transform" type="rotate" dur="2.5s" repeatCount="indefinite" values="0;60"></animateTransform>
  </path>
</g></g>
</svg>