<svg xmlns="http://www.w3.org/2000/svg" xmlns:xlink="http://www.w3.org/1999/xlink" style="margin:auto;background:#f1f2f3;display:block;z-index:1;position:relative" width="1920" height="1080" preserveAspectRatio="xMidYMid" viewBox="0 0 1920 1080">
<g transform="translate(960,540) scale(1,1) translate(-960,-540)"><g transform="translate(95.99999999999989,539.9999999999999) scale(100)" opacity="0.4">
  <path d="M8.5968 0 C8.5968 3.7152 9.208596134873538 2.098196965204198 7.024856365556543 5.103856902706003 S6.189922466582303 7.0279827217843716 2.656557297242548 8.176042659286177 S0.8501088037832121 9.406273879795881 -2.6832563655565425 8.258213942294077 S-4.77121752792555 8.058732194409739 -6.954957297242547 5.053072256907934 S-8.6832 3.7152000000000007 -8.6832 1.0633853086356297e-15 S-9.138697066559544 -2.0474123194061273 -6.954957297242549 -5.0530722569079325 S-6.216621534896299 -7.110154004792272 -2.6832563655565447 -8.258213942294077 S-0.8768078720972081 -9.32410259678798 2.6565572972425464 -8.176042659286177 S4.841116596239545 -8.109516840207808 7.024856365556542 -5.103856902706005 S8.596799999999998 -3.715200000000002 8.5968 -2.1056087205819933e-15" fill="#0a1128" stroke-width="0">
    <animateTransform attributeName="transform" type="rotate" dur="25s" repeatCount="indefinite" values="0;72"></animateTransform>
  </path>
</g><g transform="translate(-76.80000000000018,539.9999999999999) scale(100)" opacity="0.4">
  <path d="M10.316160000000002 0 C10.316160000000002 4.45824 11.050315361848249 2.517836358245038 8.429827638667852 6.124628283247204 S7.427906959898763 8.433579266141248 3.1878687566910586 9.811251191143413 S1.0201305645398544 11.28752865575506 -3.2199076386678516 9.909856730752894 S-5.725461033510662 9.670478633291687 -8.345948756691058 6.063686708289522 S-10.41984 4.458240000000001 -10.41984 1.2760623703627558e-15 S-10.966436479871454 -2.456894783287353 -8.34594875669106 -6.063686708289519 S-7.459945841875559 -8.532184805750726 -3.219907638667854 -9.909856730752892 S-1.05216944651665 -11.18892311614558 3.187868756691056 -9.811251191143414 S5.809339915487456 -9.731420208249371 8.429827638667852 -6.124628283247206 S10.31616 -4.458240000000003 10.316160000000002 -2.5267304646983923e-15" fill="#213668" stroke-width="0">
    <animateTransform attributeName="transform" type="rotate" dur="12.5s" repeatCount="indefinite" values="0;72"></animateTransform>
  </path>
</g><g transform="translate(-491.5200000000002,539.9999999999998) scale(100)" opacity="0.4">
  <path d="M14.442624000000002 0 C14.442624000000002 6.241536 15.470441506587546 3.5249709015430515 11.801758694134993 8.574479596546084 S10.39906974385827 11.807010972597745 4.463016259367482 13.735751667600777 S1.4281827903557964 15.802540118057081 -4.507870694134992 13.87379942305405 S-8.015645446914927 13.538670086608363 -11.684328259367481 8.48916139160533 S-14.587776 6.241536000000002 -14.587776 1.786487318507858e-15 S-15.353011071820038 -3.4396526966022947 -11.684328259367485 -8.489161391605327 S-10.443924178625782 -11.945058728051016 -4.507870694134995 -13.873799423054049 S-1.47303722512331 -15.66449236260381 4.463016259367478 -13.735751667600779 S8.133075881682437 -13.623988291549118 11.801758694134993 -8.574479596546087 S14.442624 -6.2415360000000035 14.442624000000002 -3.5374226505777492e-15" fill="#385fb0" stroke-width="0">
    <animateTransform attributeName="transform" type="rotate" dur="8.333333333333334s" repeatCount="indefinite" values="0;72"></animateTransform>
  </path>
</g><g transform="translate(-1362.4320000000002,539.9999999999997) scale(100)" opacity="0.4">
  <path d="M23.108198400000003 0 C23.108198400000003 9.9864576 24.75270641054007 5.639953442468883 18.882813910615987 13.719167354473734 S16.63851159017323 18.89121755615639 7.1408260149879705 21.977202668161244 S2.2850924645692734 25.28406418889133 -7.212593110615987 22.19807907688648 S-12.825032715063882 21.66187213857338 -18.69492521498797 13.582658226568528 S-23.3404416 9.986457600000003 -23.3404416 2.8583797096125724e-15 S-24.56481771491206 -5.503444314563671 -18.694925214987975 -13.582658226568523 S-16.710278685801253 -19.112093964881627 -7.212593110615992 -22.19807907688648 S-2.356859560197295 -25.063187780166096 7.140826014987965 -21.977202668161247 S13.012921410691899 -21.79838126647859 18.882813910615987 -13.71916735447374 S23.1081984 -9.986457600000005 23.108198400000003 -5.659876240924398e-15" fill="#4f8cff" stroke-width="0">
    <animateTransform attributeName="transform" type="rotate" dur="6.25s" repeatCount="indefinite" values="0;72"></animateTransform>
  </path>
</g></g>
</svg>