<svg width="100" height="100" fill="currentColor" viewBox="0 0 24 24" xmlns="http://www.w3.org/2000/svg">
          <path d="M12 17.253a.75.75 0 0 1-.372-.099l-6.566-3.752a.375.375 0 0 0-.562.325v3.526a.75.75 0 0 0 .386.656l6.75 3.75a.75.75 0 0 0 .728 0l6.75-3.75a.75.75 0 0 0 .386-.656v-3.526a.376.376 0 0 0-.563-.325l-6.565 3.752a.751.751 0 0 1-.372.1Z"></path>
          <path d="M23.247 8.93v-.006a.75.75 0 0 0-.375-.575l-10.5-6a.75.75 0 0 0-.744 0l-10.5 6a.75.75 0 0 0 0 1.302l10.5 6a.75.75 0 0 0 .744 0l9.238-5.278a.094.094 0 0 1 .14.081v6.775c0 .403.311.75.715.77a.75.75 0 0 0 .786-.75V9a.688.688 0 0 0-.004-.07Z"></path>
</svg>